# xmcd
# 
# Track frame offsets:
#     150
#     28576
#     46531
#     66964
#     87946
#     104024
#     120375
#     140976
#     159879
#     179423
#     208814
#     233304
# 
# Disc length: 3541
# 
# Revision: 2
# Processed by: cddbd v1.5.2PL0 Copyright (c) Steve Scherf et al.
# Submitted via: fre:ac v1.0.31
# 
DISCID=9c0dd30c
DTITLE=Gregg Allman - Southern Blood
DYEAR=2017
DGENRE=Rock/Pop
TTITLE0=My Only True Friend
TTITLE1=Once I Was
TTITLE2=Going Going Gone
TTITLE3=Black Muddy River
TTITLE4=I Love The Life I Live
TTITLE5=Willin'
TTITLE6=Blind Bats And Swamp Rats
TTITLE7=Out Of Left Field
TTITLE8=Love Like Kerosene
TTITLE9=Song For Adam
TTITLE10=I Love The Life I Live (live)
TTITLE11=Love Like Kerosene (live)
EXTD=
EXTT0=
EXTT1=
EXTT2=
EXTT3=
EXTT4=
EXTT5=
EXTT6=
EXTT7=
EXTT8=
EXTT9=
EXTT10=
EXTT11=
PLAYORDER=
